<svg version="1.1" id="Capa_1" xmlns="http://www.w3.org/2000/svg" xmlns:xlink="http://www.w3.org/1999/xlink" x="0px" y="0px" viewBox="0 0 512 512" style="enable-background:new 0 0 512 512;" xml:space="preserve" width="300" height="300" xmlns:svgjs="http://svgjs.dev/svgjs"><g transform="matrix(1,0,0,1,0,0)"><path style="" d="M107.734,407.418c0,17.678-14.32,31.997-31.997,31.997c-17.668,0-31.997-14.319-31.997-31.997&#10;&#9;c0-3.647,0.608-7.149,1.731-10.405c4.316-12.558,16.246-21.593,30.267-21.593c14.031,0,25.95,9.035,30.267,21.593&#10;&#9;C107.126,400.27,107.734,403.771,107.734,407.418z" fill="#565555ff" data-original-color="#fb4239ff" stroke="none"/><path style="" d="M106.003,397.013H45.47c4.316-12.558,16.246-21.593,30.267-21.593&#10;&#9;C89.767,375.421,101.687,384.455,106.003,397.013z" fill="#000000ff" data-original-color="#e21717ff" stroke="none"/><path style="" d="M188.212,407.418c0,17.678-14.33,31.997-31.997,31.997c-17.678,0-31.997-14.319-31.997-31.997&#10;&#9;c0-3.647,0.608-7.149,1.731-10.405c4.316-12.558,16.236-21.593,30.267-21.593c14.021,0,25.95,9.035,30.267,21.593&#10;&#9;C187.604,400.27,188.212,403.771,188.212,407.418z" fill="#565555ff" data-original-color="#fb4239ff" stroke="none"/><path style="" d="M186.481,397.013h-60.533c4.316-12.558,16.236-21.593,30.267-21.593&#10;&#9;C170.235,375.421,182.164,384.455,186.481,397.013z" fill="#000000ff" data-original-color="#e21717ff" stroke="none"/><path style="" d="M154.922,415.65H77.029c-4.545,0-8.23-3.684-8.23-8.23l0,0c0-4.545,3.684-8.23,8.23-8.23h77.893&#10;&#9;c4.545,0,8.23,3.684,8.23,8.23l0,0C163.151,411.966,159.467,415.65,154.922,415.65z" fill="#7d1b1bff" data-original-color="#3f51b4ff" stroke="none"/><path id="SVGCleanerId_0" style="" d="M434.966,415.65h-77.893c-4.545,0-8.23-3.684-8.23-8.23l0,0&#10;&#9;c0-4.545,3.684-8.23,8.23-8.23h77.893c4.545,0,8.23,3.684,8.23,8.23l0,0C443.196,411.966,439.511,415.65,434.966,415.65z" fill="#7d1b1bff" data-original-color="#3f51b4ff" stroke="none"/><path style="" d="M387.778,407.418c0,17.678-14.319,31.997-31.997,31.997c-17.668,0-31.997-14.319-31.997-31.997&#10;&#9;c0-3.647,0.608-7.149,1.731-10.405c4.316-12.558,16.246-21.593,30.267-21.593c14.031,0,25.95,9.035,30.267,21.593&#10;&#9;C387.17,400.27,387.778,403.771,387.778,407.418z" fill="#565555ff" data-original-color="#fb4239ff" stroke="none"/><path style="" d="M386.048,397.013h-60.533c4.316-12.558,16.246-21.593,30.267-21.593&#10;&#9;C369.812,375.421,381.731,384.455,386.048,397.013z" fill="#000000ff" data-original-color="#e21717ff" stroke="none"/><path style="" d="M468.256,407.418c0,17.678-14.33,31.997-31.997,31.997c-17.678,0-31.997-14.319-31.997-31.997&#10;&#9;c0-3.647,0.608-7.149,1.731-10.405c4.316-12.558,16.236-21.593,30.267-21.593c14.021,0,25.95,9.035,30.267,21.593&#10;&#9;C467.648,400.27,468.256,403.771,468.256,407.418z" fill="#565555ff" data-original-color="#fb4239ff" stroke="none"/><path style="" d="M466.525,397.013h-60.533c4.316-12.558,16.236-21.593,30.267-21.593&#10;&#9;C450.279,375.421,462.209,384.455,466.525,397.013z" fill="#000000ff" data-original-color="#e21717ff" stroke="none"/><g>
	<path id="SVGCleanerId_0_1_" style="" d="M434.966,415.65h-77.893c-4.545,0-8.23-3.684-8.23-8.23l0,0&#10;&#9;&#9;c0-4.545,3.684-8.23,8.23-8.23h77.893c4.545,0,8.23,3.684,8.23,8.23l0,0C443.196,411.966,439.511,415.65,434.966,415.65z" fill="#7d1b1bff" data-original-color="#3f51b4ff" stroke="none"/>
</g><path style="" d="M502.634,102.961v249.954H9.366V102.961c0-16.775,13.601-30.377,30.377-30.377h432.515&#10;&#9;C489.033,72.584,502.634,86.186,502.634,102.961z" fill="#d14d4dff" data-original-color="#fe9700ff" stroke="none"/><g>
	<path style="" d="M76.665,166.4v82.69c0,5.609-4.558,10.167-10.178,10.167H9.366V156.232h57.121&#10;&#9;&#9;C72.107,156.232,76.665,160.79,76.665,166.4z" fill="#8f0101ff" data-original-color="#f26200ff" stroke="none"/>
	<rect x="9.366" y="286.66" style="" width="493.27" height="66.26" fill="#8f0101ff" data-original-color="#f26200ff" stroke="none"/>
	<path style="" d="M92.615,368.525v-224.15c0-6.095,4.941-11.036,11.036-11.036h111.13&#10;&#9;&#9;c6.095,0,11.036,4.941,11.036,11.036v224.15H92.615z" fill="#8f0101ff" data-original-color="#f26200ff" stroke="none"/>
</g><path style="" d="M502.634,102.961v20.261H9.366v-20.261c0-0.812,0.031-1.613,0.104-2.414&#10;&#9;c1.218-15.651,14.309-27.962,30.273-27.962h432.515c15.964,0,29.055,12.311,30.273,27.962&#10;&#9;C502.603,101.348,502.634,102.149,502.634,102.961z" fill="#7d1b1bff" data-original-color="#3f51b4ff" stroke="none"/><path style="" d="M502.634,102.961v20.261H9.366v-20.261c0-0.812,0.031-1.613,0.104-2.414h493.06&#10;&#9;C502.603,101.348,502.634,102.149,502.634,102.961z" fill="#560f0fff" data-original-color="#21399bff" stroke="none"/><rect x="9.363" y="302.27" style="" width="493.27" height="50.649" fill="#7d1b1bff" data-original-color="#3f51b4ff" stroke="none"/><path style="" d="M201.967,148.948h-85.501c-4.552,0-8.241,3.69-8.241,8.241v195.726h101.984V157.189&#10;&#9;C210.209,152.637,206.519,148.948,201.967,148.948z" fill="#fa8b8bff" data-original-color="#75ac35ff" stroke="none"/><path style="" d="M180.423,171.842H138.01c-4.552,0-8.241,3.69-8.241,8.241v55.322c0,4.552,3.69,8.241,8.241,8.241&#10;&#9;h42.413c4.552,0,8.241-3.69,8.241-8.241v-55.322C188.665,175.533,184.975,171.842,180.423,171.842z" fill="#caedffff" data-original-color="#caedffff" stroke="none"/><path style="" d="M234.217,249.344v-83.198c0-5.475,4.438-9.913,9.913-9.913h105.675c5.475,0,9.913,4.438,9.913,9.913&#10;&#9;v83.198c0,5.475-4.438,9.913-9.913,9.913H244.13C238.655,259.257,234.217,254.818,234.217,249.344z" fill="#8f0101ff" data-original-color="#f26200ff" stroke="none"/><path style="" d="M344.109,180.089v55.321c0,4.543-3.688,8.241-8.241,8.241h-77.799c-4.553,0-8.241-3.698-8.241-8.241&#10;&#9;v-55.321c0-4.553,3.688-8.241,8.241-8.241h77.799C340.421,171.848,344.109,175.535,344.109,180.089z" fill="#caedffff" data-original-color="#caedffff" stroke="none"/><path style="" d="M364.589,249.344v-83.198c0-5.475,4.438-9.913,9.913-9.913h105.665c5.475,0,9.913,4.438,9.913,9.913&#10;&#9;v83.198c0,5.475-4.438,9.913-9.913,9.913H374.503C369.028,259.257,364.589,254.818,364.589,249.344z" fill="#8f0101ff" data-original-color="#f26200ff" stroke="none"/><g>
	<path style="" d="M474.468,180.089v55.321c0,4.543-3.688,8.241-8.241,8.241h-77.789c-4.553,0-8.241-3.698-8.241-8.241&#10;&#9;&#9;v-55.321c0-4.553,3.688-8.241,8.241-8.241h77.789C470.78,171.848,474.468,175.535,474.468,180.089z" fill="#caedffff" data-original-color="#caedffff" stroke="none"/>
	<path style="" d="M61.056,180.089v55.321c0,4.543-3.688,8.241-8.241,8.241H9.362v-71.804h43.453&#10;&#9;&#9;C57.368,171.848,61.056,175.535,61.056,180.089z" fill="#caedffff" data-original-color="#caedffff" stroke="none"/>
</g><g>
	<path style="" d="M344.109,180.089v17.431h-94.282v-17.431c0-4.553,3.688-8.241,8.241-8.241h77.799&#10;&#9;&#9;C340.421,171.848,344.109,175.535,344.109,180.089z" fill="#f2ffffff" data-original-color="#2796afff" stroke="none"/>
	<path style="" d="M474.468,180.089v17.431h-94.272v-17.431c0-4.553,3.688-8.241,8.241-8.241h77.789&#10;&#9;&#9;C470.78,171.848,474.468,175.535,474.468,180.089z" fill="#f2ffffff" data-original-color="#2796afff" stroke="none"/>
	<path style="" d="M61.056,180.089v17.431H9.362v-25.672h43.453C57.368,171.848,61.056,175.535,61.056,180.089z" fill="#f2ffffff" data-original-color="#2796afff" stroke="none"/>
</g><path style="" d="M505.391,381.563H6.609c-3.65,0-6.609-2.959-6.609-6.609v-22.202c0-3.65,2.959-6.609,6.609-6.609&#10;&#9;h498.782c3.65,0,6.609,2.959,6.609,6.609v22.202C512,378.604,509.041,381.563,505.391,381.563z" fill="#d14d4dff" data-original-color="#fe9700ff" stroke="none"/><g>
</g><g>
</g><g>
</g><g>
</g><g>
</g><g>
</g><g>
</g><g>
</g><g>
</g><g>
</g><g>
</g><g>
</g><g>
</g><g>
</g><g>
</g></g></svg>