<?xml version="1.0" encoding="UTF-8"?>
<svg xmlns="http://www.w3.org/2000/svg" version="1.1" viewBox="0 0 3000 1059">
  <defs>
    <style>
      .cls-1 {
        fill: #ff5126;
      }
    </style>
  </defs>
  <!-- Generator: Adobe Illustrator 28.6.0, SVG Export Plug-In . SVG Version: 1.2.0 Build 709)  -->
  <g>
    <g id="Capa_1">
      <g>
        <path class="cls-1" d="M777.1,236.6c-4.1,20.8-7.6,38.5-7.9,39.5-.4,1.7,2.2,1.8,49.7,1.8s50.1.2,50.1,1.4-10.3,54.8-23,119.9c-12.6,65.2-23,118.8-23,119.1s19.5.6,43.4.6h43.3l5.5-28.3c3.1-15.5,13.6-69.7,23.4-120.4l17.9-92.3h50.2c46.9,0,50.2-.1,50.7-1.8.6-2.2,14.6-75.1,14.6-76.3s-57.1-.9-143.7-.9h-143.8l-7.4,37.7Z"/>
        <path class="cls-1" d="M1119.7,201.1c-1,4.2-61.7,315.7-61.7,316.8s13.8,1,43.5,1,43.5-.1,43.5-.3,4.7-23.8,10.3-52.7l10.3-52.5h60.1l3.7,2.5c2.3,1.6,4.7,4.6,6.4,8l2.7,5.5.7,33c.3,18.1.7,38.3.7,44.7v11.8h87.8l.7-19.3c.4-10.5.7-33.4.8-50.7.1-34.4-.7-41.3-5.7-51.6-5.9-12.1-20.1-19.3-37.9-19.4h-5.9l.6-3.7c.8-4.5,1.9-5.3,7.7-5.3,6.7-.1,16.8-2.5,25.5-6.1,27.4-11.4,49.9-38.4,58.2-69.7,3.3-12.6,3.9-35.8,1-46.1-6-21.8-20-36.5-42.4-44.2l-9.8-3.4-100.1-.3-100.2-.3-.5,2.3ZM1272.7,279c7.6,2.8,11.2,9.9,11.3,21.5,0,20.2-9.4,39.7-22.5,46.8-3.9,2-5.3,2.1-43.7,2.4-21.9.2-39.8,0-39.8-.4,0-.9,13-67.6,13.6-69.7.5-1.6,3.2-1.7,39.4-1.7s39.9.4,41.7,1.1Z"/>
        <path class="cls-1" d="M1437.2,358.3c-43.6,87.6-79.2,159.7-79.2,160s18.5.5,41.1.4l41.2-.3,17.2-35.5,17.1-35.5,51.7-.3,51.7-.2.4,2.2c.3,1.3,1.7,15.8,3.1,32.3s2.8,31.7,3.1,33.7l.6,3.8h88.8v-2.3c0-3-31.9-312.6-32.6-315.5l-.4-2.2h-124.7l-79.1,159.4ZM1565.4,271.6c-2,16.3-1.9,20.4,1.8,58.8,2,21.4,3.7,40.5,3.7,42.2v3.3c.1,0-30.4,0-30.4,0-16.8,0-30.5-.2-30.5-.5s9.2-19.5,20.4-42.8c16.1-33.2,21.2-44.6,23.7-53.5l3.2-11.2h8.5l-.4,3.7Z"/>
        <path class="cls-1" d="M1776.5,201.1c-1.2,5.3-61.5,315.4-61.5,316.5s9.3,1.3,43.3,1.3h43.2l30.9-158.8c17-87.3,31.1-159.3,31.4-160,.3-.9-8.7-1.2-43.2-1.2h-43.6l-.5,2.2Z"/>
        <path class="cls-1" d="M1931,199.8c0,1-60.7,312.9-61.7,316.8l-.5,2.3h87.1l1-5.3c.6-2.8,7.6-38.6,15.6-79.3l14.5-74.2-2.8-25.5c-1.5-14.1-2.5-25.4-2.2-25.2.4.2,17.9,47.4,39.1,104.9l38.4,104.6h57.8c35.6,0,57.7-.4,57.7-.9,0-1,60.7-312.9,61.7-316.9l.5-2.2h-87.1l-.6,3.2c-.4,1.8-8.6,44.4-18.4,94.7l-17.7,91.3,2.8,26.1c1.5,14.4,2.5,26.3,2.3,26.6-.3.2-.8-.7-1.3-2-1.6-4.2-86.4-234.3-87.4-237.2l-1-2.7h-48.9c-29.6,0-48.9.4-48.9.9Z"/>
        <path class="cls-1" d="M1487,542.6c-18.7,2.7-28.7,5.7-42.1,12.5-33.7,17.2-54.3,50.1-56.5,90-2.5,44.1,17.8,82.1,54.7,102.3,31.5,17.3,74.7,18.2,106.4,2.3,19.4-9.7,37.7-28.3,45.5-46.2,2.9-6.5,7-18.5,7-20.2s-5.8-1.3-30-1.3h-30l-1.9,3.8c-7.1,13.9-23.8,23.2-41.6,23.2s-43.8-16.2-50-40.5c-1.9-7.5-1.9-22.1,0-30.3,4.3-18,17.3-32.8,33.7-38,9-2.9,15.4-3.5,24.4-2.2,18.3,2.5,30.1,12.4,38.8,32.3,1.9,4.3,3.6,8,3.9,8.3s49.5-21.7,51.5-23.1c.5-.4-3.7-11.4-6.8-17.5-15.5-30.8-44.8-50.5-82-55-8.1-1-19.6-1.1-25-.4Z"/>
        <path class="cls-1" d="M750,572v26h66v160h58v-160h66v-52h-190v26Z"/>
        <path class="cls-1" d="M975,652v106h57v-70h20.1c18.6,0,20.4.2,23.5,2.1,5.7,3.5,8.1,10.2,14.2,40.4l5.5,27.5h58.3l-5.3-30.3c-5.8-33-7.7-40.5-12.3-48.5-5.1-8.8-13-13.1-27.2-14.7-5.1-.6-5.8-.9-5.8-2.8s.8-2.4,7.7-3.5c20.3-3.2,35.4-17.6,40.8-38.7,3.5-13.8,1-33.6-6-46-4.5-8-14.6-17.5-23-21.5-12.3-5.9-13.8-6-83.7-6h-63.8v106ZM1088,600.2c6,3.1,8.4,8,8.9,18.2.4,9.8-1.2,17.7-4.6,21.6-4.9,5.8-5.8,6-34.3,6h-26v-48h25.8c24.8,0,25.9.1,30.2,2.2Z"/>
        <path class="cls-1" d="M1235.5,551.2c-.8,2.9-15.2,50.5-31.9,105.8l-30.3,100.5,27,.3c14.9.1,27.1.1,27.3-.1.2-.1,3.4-10.8,7.2-23.7l6.8-23.5h68.7l6.7,23.5,6.7,23.5,29.7.3c28,.2,29.7.1,29.2-1.5-2.3-7.4-62.6-209.5-62.6-209.9s-18.7-.4-41.5-.4h-41.4l-1.6,5.2ZM1279.5,598.7c.3,3.8,4.2,19.4,8.6,34.8s7.9,28.6,7.9,29.2c0,1-4.7,1.3-20,1.3s-20-.2-20-1.6,3.6-14.1,8-29.3,8-29,8-30.6.3-4.7.6-6.8c.6-3.2,1-3.7,3.5-3.7s2.8.2,3.4,6.7Z"/>
        <path class="cls-1" d="M1641,652v106h57l.2-46.7.3-46.6,33.6,46.4,33.6,46.4,35.8.3c21.2.1,35.5-.1,35.3-.7-.1-.5-17.4-24.1-38.3-52.4l-38-51.4-10.3-3.8c-7.3-2.7-10.2-4.2-10-5.3.2-.9,4.4-2.9,10.5-5.1l10.3-3.6,37.5-44.3c20.6-24.4,37.5-44.5,37.5-44.8s-15.9-.4-35.2-.4h-35.3l-32.5,41.1c-17.9,22.6-33,41.5-33.7,42.1-1.1.8-1.3-7.3-1.3-41.1v-42.1h-57v106Z"/>
        <path class="cls-1" d="M1867,652v106h167v-52h-109v-31h96v-46h-96v-31h109v-52h-167v106Z"/>
        <path class="cls-1" d="M2068,652v106h58v-70h19.9c18.9,0,20,.1,23.2,2.2,5.9,3.9,8.3,10.7,13.9,38.3,2.7,13.7,5.2,26,5.5,27.2l.5,2.3h29c16,0,29-.3,29-.6,0-1.8-10.3-58-11.5-62.8-4.9-19.2-13.1-27.1-30.9-29.7-6.8-1-7.6-1.4-7.6-3.3s.8-2.4,7.6-3.4c35.4-5.5,53-47,35.3-83.2-6.4-12.8-19.6-23-35.5-27-7.3-1.9-11.3-2-72.1-2h-64.3v106ZM2180.3,599.4c7.6,3.1,11.5,12.8,10.4,25.9-.7,8.2-3.7,14.8-8,17.9-3.1,2.2-4,2.3-29.9,2.6l-26.8.3v-48.1h25.5c19.3,0,26.4.3,28.8,1.4Z"/>
        <path class="cls-1" d="M752,817.8c0,23.5.9,28.8,6.3,34.9,4.6,5.3,9.7,7.3,18.7,7.3s17.6-3.5,22.2-12.3c2.2-3.9,2.3-5.6,2.6-27.5.4-22.9.3-23.2-1.7-23.2s-2.1.4-2.1,21.2-.5,23-1.1,25.3c-3.7,13.2-23.4,18-34.4,8.4-5.6-4.9-6.5-9.8-6.5-34.1s-.1-20.8-2-20.8-2,.7-2,20.8Z"/>
        <path class="cls-1" d="M847,828.5c0,30.7,0,31.5,2,31.5s2-.8,2.2-27.7l.3-27.7,21.5,27.4c11.9,15.1,22.3,27.6,23.3,27.8,1.6.3,1.7-1.9,1.7-31.2s0-31.6-2-31.6-2,.8-2.2,27.6l-.3,27.6-21.5-27.6c-13.4-17.2-22.2-27.6-23.2-27.6-1.7,0-1.8,2.2-1.8,31.5Z"/>
        <path class="cls-1" d="M944,828.6v31.6l16.8-.4c19.2-.6,23.5-1.7,30.6-7.9,15.6-13.8,12.7-40.9-5.4-50.2-7-3.5-14.4-4.7-29.7-4.7h-12.3v31.6ZM978.6,802.5c23.2,6.9,26.3,39.5,4.8,50.5-4.5,2.3-6.2,2.5-20.1,2.8l-15.3.3v-55.1h12.8c8.4,0,14.6.5,17.8,1.5Z"/>
        <path class="cls-1" d="M1041,828.5v31.5h21.5c20.8,0,21.5-.1,21.5-2s-.7-2-19.5-2h-19.5v-26h17c14.4,0,17-.2,17-1.5s-2.6-1.5-17-1.5h-17v-26h19c18.3,0,19-.1,19-2s-.7-2-21-2h-21v31.5Z"/>
        <path class="cls-1" d="M1125,828.4c0,30.9,0,31.6,2,31.6s2-.7,2-10.5v-10.5h24.7l7.4,10.5c5.6,7.9,7.9,10.5,9.6,10.5s1.4-1.2-5.4-10.7c-7-9.7-7.5-10.8-5.9-11.7,9.4-5.5,12.6-10.5,12.6-19.3s-1.8-11-6.3-15c-5.1-4.5-9.1-5.4-25.9-6l-14.8-.6v31.7ZM1160,803.6c1.9,1.1,4.5,3.6,5.8,5.5,2,2.9,2.3,4.4,2,9.9-.4,7.7-2.8,11.8-8.5,14.6-3,1.4-6.7,1.9-17,2.2l-13.3.4v-35.4l13.8.4c11.6.2,14.2.6,17.2,2.4Z"/>
        <path class="cls-1" d="M1248,799c0,1.9.7,2,11.5,2h11.5v29.5c0,28.8,0,29.5,2,29.5s2-.7,2-29.5v-29.5h11.5c10.8,0,11.5-.1,11.5-2s-.7-2-25-2-25,.1-25,2Z"/>
        <path class="cls-1" d="M1333,828.5c0,30.8,0,31.5,2,31.5s2-.7,2-15v-15h43v15c0,14.3.1,15,2,15s2-.7,2-31.5,0-31.5-2-31.5-2,.7-2,15v15h-43v-15c0-14.3-.1-15-2-15s-2,.7-2,31.5Z"/>
        <path class="cls-1" d="M1430,828.5v31.5h21c20.3,0,21-.1,21-2s-.7-2-19.5-2h-19.5v-26h17c14.3,0,17-.2,17-1.5s-2.8-1.5-16.7-1.7l-16.8-.3-.3-12.8-.3-12.7h19.1c18.3,0,19-.1,19-2s-.7-2-20.5-2h-20.5v31.5Z"/>
        <path class="cls-1" d="M1567.8,797.9c-8.6,2.8-12.8,8.3-12.8,16.6s.5,5.2,3.8,8.5,5.5,4.2,9.7,5.4c17,4.7,19.9,5.9,22.7,8.6,4.9,5,3.5,13.2-3.1,17.3-3,1.8-5.1,2.2-12.1,2.2s-9.3-.4-15-3.2c-4.1-2-6.8-2.9-7.4-2.3-1.2,1.2,1.4,3.4,7.4,6.2,3.1,1.5,7.1,2.3,13.2,2.6,8,.4,9.3.2,14.3-2.3,7-3.4,10-8.4,9.2-15.4s-1.3-5.2-3.9-7.7c-3.5-3.1-6.1-4.2-21.1-8.5-10.6-3-13.7-5.9-13.7-12.7s.5-5.5,3-8.1c5.6-5.5,18.8-6.3,28.3-1.6,1.6.8,3.3,1.2,3.8.9,5.8-3.6-17.6-9.3-26.3-6.5Z"/>
        <path class="cls-1" d="M1637,828.4c0,30.9,0,31.6,2,31.6s2-.7,2-10.5v-10.5h12.1c15.4,0,20-1.2,25.4-6.4,5.5-5.3,7.2-10.9,5.7-18.4-1.5-7.2-4.5-11-11.1-14-4.9-2.3-7.1-2.6-20.8-3l-15.3-.5v31.7ZM1669.1,802.1c11.3,3.8,15.5,18.6,7.7,27.4-4.2,4.8-10.5,6.5-24.5,6.5h-11.3v-35h12.4c6.7,0,13.8.5,15.7,1.1Z"/>
        <path class="cls-1" d="M1741.5,798.3c-8.6,2.9-15.3,8.4-19.3,16.1-2.3,4.4-2.7,6.3-2.7,14.1s.4,9.8,2.4,13.9c3.1,6.3,8.4,11.6,14.7,14.7,4.2,2.1,6.3,2.4,14.9,2.4s10.6-.3,15-2.7c6.4-3.4,11.8-9,14.7-15.3,3.1-6.9,3.1-19,.1-25.6-5.1-11.4-15.3-18-28.2-18.6-4.5-.2-9.2.3-11.6,1ZM1763.7,803.2c10.2,4.7,15.7,13.8,15.8,25.8,0,6.5-.4,8.2-3,12.8-4.8,8.8-12.3,13.8-22.3,14.8-12,1.3-23.8-5.3-28.8-16.1-3-6.4-3.3-17-.5-23,6.6-14.7,24.1-21.1,38.8-14.3Z"/>
        <path class="cls-1" d="M1812,799c0,1.9.7,2,11.5,2h11.5v29.5c0,28.8,0,29.5,2,29.5s2-.7,2-29.5v-29.5h11.5c10.8,0,11.5-.1,11.5-2s-.7-2-25-2-25,.1-25,2Z"/>
        <path class="cls-1" d="M1897,828.5v31.5h20c19.3,0,20-.1,20-2s-.7-2-18.5-2h-18.5v-29.5c0-25.6-.2-29.5-1.5-29.5s-1.5,4.2-1.5,31.5Z"/>
        <path class="cls-1" d="M1973,828.5c0,27.3.2,31.5,1.5,31.5s1.5-4.2,1.5-31.5-.2-31.5-1.5-31.5-1.5,4.2-1.5,31.5Z"/>
        <path class="cls-1" d="M2037.3,798.8c-26.3,9.4-28.6,44.8-3.8,58,4.5,2.4,6,2.7,15.5,2.7s10.8-.2,16-3.1l5.5-3.1.3-12.2.3-12.1h-12.6c-10.4,0-12.5.2-12.5,1.5s1.8,1.5,10.5,1.5h10.6l-.3,9.7-.3,9.8-4.5,2.5c-3.7,2-5.9,2.5-12.5,2.5s-8.9-.4-13.7-2.8c-10.7-5.3-16.4-15.1-15.6-27,1.1-15.8,13.1-26.2,30-25.9,7,.1,12.9,2,16.4,5.3,1.8,1.7,2.3,1.8,3.3.5.9-1.1.6-1.8-1.6-3.6-4.7-3.7-9.4-5.2-17.8-5.6-6.1-.4-9.2,0-13.2,1.4Z"/>
        <path class="cls-1" d="M2115,828.5c0,30.8,0,31.5,2,31.5s2-.7,2-15v-15h43v15c0,14.3.1,15,2,15s2-.7,2-31.5,0-31.5-2-31.5-2,.7-2,15v15h-43v-15c0-14.3-.1-15-2-15s-2,.7-2,31.5Z"/>
        <path class="cls-1" d="M2201,799c0,1.9.7,2,11.5,2h11.5v29.5c0,28.8,0,29.5,2,29.5s2-.7,2-29.5v-29.5h11c10.3,0,11-.1,11-2s-.7-2-24.5-2-24.5.1-24.5,2Z"/>
      </g>
    </g>
  </g>
</svg>